<svg height="512pt" viewBox="0 0 512 512.00001" width="512pt" xmlns="http://www.w3.org/2000/svg"><path d="m322.265625 35.628906-66.28125-35.628906-65.9375 35.4375-.339844.191406c-85.414062 48.804688-143.847656 136.199219-156.273437 235.382813h-33.433594v89.996093h31v120.992188h-31v30h511.972656v-30h-31v-120.992188h31v-89.996093h-33.4375c-12.421875-99.171875-70.847656-186.570313-156.269531-235.382813zm67.960937 235.382813c-1.808593-20.519531-6.953124-40.371094-15.015624-58.839844l48.511718-24.257813c12.203125 25.996094 20.5625 53.972657 24.5625 83.097657zm19.339844-109.558594-48.515625 24.257813c-7.96875-12.394532-17.390625-23.855469-28.113281-34.085938l31.394531-47.089844c17.488281 17 32.675781 36.140625 45.234375 56.917969zm-68.023437-76.8125-32.023438 48.035156c-4-2.726562-8.105469-5.320312-12.34375-7.742187l-26.191406-14.964844v-67.851562l36.566406 19.652343c11.960938 6.84375 23.304688 14.5 33.992188 22.871094zm-137.121094-22.871094 36.566406-19.652343v67.855468l-27.292969 15.601563c-3.867187 2.210937-7.625 4.566406-11.289062 7.035156l-31.976562-47.96875c10.6875-8.371094 22.03125-16.027344 33.992187-22.871094zm-56.78125 42.765625 31.265625 46.898438c-10.796875 10.226562-20.269531 21.707031-28.269531 34.136718l-48.234375-24.117187c12.5625-20.777344 27.746094-39.917969 45.238281-56.917969zm-59.394531 83.378906 48.242187 24.121094c-8.050781 18.503906-13.136719 38.40625-14.835937 58.976563h-57.96875c4-29.125 12.363281-57.101563 24.5625-83.097657zm-58.246094 113.097657h90.992188v30h-90.992188zm90.992188 59.996093v60.996094h-59.996094v-60.996094zm-59.996094 120.992188v-29.996094h59.996094v29.996094zm89.996094 0c0-9.09375 0-186.515625 0-195.640625 0-55.75 29.730468-107.378906 77.59375-134.742187l27.402343-15.667969 26.308594 15.027343c48.53125 27.730469 78.683594 80.058594 78.683594 136.574219v194.449219zm239.984374 0v-29.996094h59.996094v29.996094zm59.996094-59.996094h-59.996094v-60.996094h59.996094zm31-90.992187h-90.996094v-30h90.996094zm0 0"/></svg>